<svg width="25" height="25" xmlns="http://www.w3.org/2000/svg" stroke="null" style="vector-effect: non-scaling-stroke;">
 <title stroke="null" style="vector-effect: non-scaling-stroke;">scan</title>

 <g stroke="null">
  <title stroke="null">background</title>
  <rect stroke="null" fill="none" id="canvas_background" height="27" width="27" y="-1" x="-1"/>
 </g>
 <g stroke="null">
  <title stroke="null">Layer 1</title>
  <path stroke="null" stroke-width="0.1" id="svg_1" d="m6.598688,2.05l1.973174,0l0,1.80389l-1.973174,0a1.854784,1.976999 0 0 0 -1.311402,0.577568l0,0a1.854784,1.976999 0 0 0 -0.541864,1.397812l0,2.58207l-1.695412,0l0,-2.578834a3.539571,3.772799 0 0 1 1.041229,-2.667816l0,0a3.538054,3.771181 0 0 1 2.507449,-1.114691zm-3.055385,8.883551l17.623483,0a0.499365,0.532269 0 0 1 0.493294,0.529033l0,1.054831a0.499365,0.532269 0 0 1 -0.493294,0.533887l-17.623483,0a0.497847,0.530651 0 0 1 -0.493294,-0.533887l0,-1.054831a0.496329,0.529033 0 0 1 0.493294,-0.529033zm13.253661,-8.883551l1.314438,0a3.5335,3.766328 0 0 1 2.502896,1.109837l0,0a3.539571,3.772799 0 0 1 1.042747,2.672669l0,2.578834l-1.689341,0l0,-2.578834a1.851748,1.973763 0 0 0 -0.546418,-1.396195l0,0a1.853266,1.975381 0 0 0 -1.311402,-0.579186l-1.31292,0l0,-1.807126zm4.857045,13.242008l0,2.855485a3.560821,3.795449 0 0 1 -3.548678,3.782506l-1.308366,0l0,-1.80389l1.314438,0a1.865409,1.988323 0 0 0 1.856302,-1.978616l0,-2.855485l1.686305,0zm-13.088218,6.633138l-1.973174,0a3.539571,3.772799 0 0 1 -2.501378,-1.108219l-0.04857,-0.056624a3.5335,3.766328 0 0 1 -0.992659,-2.612809l0,-2.855485l1.692377,0l0,2.855485a1.859337,1.981852 0 0 0 0.508472,1.360602l0.037946,0.035592a1.851748,1.973763 0 0 0 1.309884,0.582422l1.973174,0l0,1.80389l-0.006071,-0.004854z"/>
 </g>
</svg>