<?xml version="1.0" encoding="UTF-8"?>
<svg xmlns="http://www.w3.org/2000/svg" xmlns:xlink="http://www.w3.org/1999/xlink" width="21pt" height="21pt" viewBox="0 0 21 21" version="1.1">
<g id="surface1">
<path style=" stroke:none;fill-rule:nonzero;fill:rgb(0%,0%,0%);fill-opacity:1;" d="M 4.019531 0 L 6.242188 0 L 6.242188 1.90625 L 4.019531 1.90625 C 3.464844 1.90625 2.933594 2.125 2.542969 2.515625 C 2.152344 2.90625 1.929688 3.4375 1.933594 3.992188 L 1.933594 6.71875 L 0.0234375 6.71875 L 0.0234375 3.996094 C 0.0234375 2.9375 0.445312 1.925781 1.195312 1.175781 C 1.941406 0.425781 2.957031 0 4.019531 0 Z M 0.578125 9.382812 L 20.421875 9.382812 C 20.726562 9.386719 20.976562 9.636719 20.976562 9.941406 L 20.976562 11.058594 C 20.976562 11.367188 20.730469 11.617188 20.421875 11.621094 L 0.578125 11.621094 C 0.269531 11.617188 0.0195312 11.367188 0.0234375 11.058594 L 0.0234375 9.941406 C 0.0234375 9.636719 0.269531 9.386719 0.578125 9.382812 Z M 15.5 0 L 16.980469 0 C 18.039062 0 19.054688 0.421875 19.800781 1.171875 C 20.550781 1.917969 20.972656 2.9375 20.972656 3.996094 L 20.972656 6.71875 L 19.070312 6.71875 L 19.070312 3.996094 C 19.070312 3.441406 18.847656 2.910156 18.457031 2.519531 C 18.066406 2.128906 17.535156 1.910156 16.980469 1.910156 L 15.5 1.910156 Z M 20.96875 13.988281 L 20.96875 17.003906 C 20.960938 19.207031 19.179688 20.992188 16.972656 21 L 15.5 21 L 15.5 19.09375 L 16.980469 19.09375 C 18.132812 19.089844 19.066406 18.15625 19.070312 17.003906 L 19.070312 13.988281 Z M 6.234375 20.996094 L 4.011719 20.996094 C 2.953125 20.992188 1.941406 20.574219 1.195312 19.824219 L 1.140625 19.765625 C 0.425781 19.023438 0.0234375 18.035156 0.0234375 17.003906 L 0.0234375 13.988281 L 1.929688 13.988281 L 1.929688 17.003906 C 1.929688 17.539062 2.132812 18.054688 2.5 18.441406 L 2.542969 18.480469 C 2.933594 18.871094 3.464844 19.09375 4.019531 19.09375 L 6.242188 19.09375 L 6.242188 21 Z M 6.234375 20.996094 "/>
</g>
</svg>
